<mxfile host="app.diagrams.net" modified="2021-02-18T16:49:27.772Z" agent="5.0 (Windows NT 10.0; Win64; x64) AppleWebKit/537.36 (KHTML, like Gecko) Chrome/88.0.4324.150 Safari/537.36" etag="27RnLg2cX0C6BvoBPA68" version="14.2.9" type="github">
  <diagram id="UZ8dTULBI-KaDN6gNk6Q" name="Page-1">
    <mxGraphModel dx="48" dy="31" grid="1" gridSize="10" guides="1" tooltips="1" connect="1" arrows="1" fold="1" page="1" pageScale="1" pageWidth="850" pageHeight="1100" math="0" shadow="0">
      <root>
        <mxCell id="0" />
        <mxCell id="1" parent="0" />
        <mxCell id="R-Gr46VUxKY90N0XMq4_-1" style="edgeStyle=orthogonalEdgeStyle;rounded=1;html=1;labelBackgroundColor=none;startArrow=none;startFill=0;startSize=5;endArrow=classicThin;endFill=1;endSize=5;jettySize=auto;orthogonalLoop=1;strokeWidth=1;fontFamily=Verdana;fontSize=8;entryX=0;entryY=0.5;entryDx=0;entryDy=0;" parent="1" source="R-Gr46VUxKY90N0XMq4_-3" target="R-Gr46VUxKY90N0XMq4_-61" edge="1">
          <mxGeometry relative="1" as="geometry">
            <mxPoint x="178" y="78.08333333333337" as="targetPoint" />
          </mxGeometry>
        </mxCell>
        <mxCell id="R-Gr46VUxKY90N0XMq4_-2" value="User" style="swimlane;html=1;startSize=20;" parent="1" vertex="1">
          <mxGeometry x="31" y="33" width="163" height="1020" as="geometry">
            <mxRectangle y="20" width="30" height="1040" as="alternateBounds" />
          </mxGeometry>
        </mxCell>
        <mxCell id="R-Gr46VUxKY90N0XMq4_-3" value="report&lt;br&gt;Suspicious email&lt;br&gt;to &lt;b&gt;spamcheck&lt;/b&gt;" style="rounded=1;whiteSpace=wrap;html=1;shadow=0;labelBackgroundColor=none;strokeWidth=1;fontFamily=Verdana;fontSize=8;align=center;" parent="R-Gr46VUxKY90N0XMq4_-2" vertex="1">
          <mxGeometry x="60" y="70" width="70" height="50" as="geometry" />
        </mxCell>
        <mxCell id="R-Gr46VUxKY90N0XMq4_-4" value="" style="ellipse;whiteSpace=wrap;html=1;aspect=fixed;fillColor=#000000;" parent="R-Gr46VUxKY90N0XMq4_-2" vertex="1">
          <mxGeometry x="10" y="80" width="30" height="30" as="geometry" />
        </mxCell>
        <mxCell id="R-Gr46VUxKY90N0XMq4_-5" value="" style="endArrow=classic;html=1;" parent="R-Gr46VUxKY90N0XMq4_-2" edge="1">
          <mxGeometry width="50" height="50" relative="1" as="geometry">
            <mxPoint x="40" y="94.41" as="sourcePoint" />
            <mxPoint x="60" y="94" as="targetPoint" />
          </mxGeometry>
        </mxCell>
        <mxCell id="R-Gr46VUxKY90N0XMq4_-6" value="Start" style="text;html=1;strokeColor=none;fillColor=none;align=center;verticalAlign=middle;whiteSpace=wrap;rounded=0;" parent="R-Gr46VUxKY90N0XMq4_-2" vertex="1">
          <mxGeometry x="5" y="60" width="40" height="20" as="geometry" />
        </mxCell>
        <mxCell id="R-Gr46VUxKY90N0XMq4_-10" value="Recommend user call to him/her make sure they are indeed" style="rounded=1;whiteSpace=wrap;html=1;shadow=0;labelBackgroundColor=none;strokeWidth=1;fontFamily=Verdana;fontSize=8;align=center;fillColor=#dae8fc;strokeColor=#6c8ebf;" parent="R-Gr46VUxKY90N0XMq4_-2" vertex="1">
          <mxGeometry x="48" y="229" width="70" height="50" as="geometry" />
        </mxCell>
        <mxCell id="R-Gr46VUxKY90N0XMq4_-23" value="&lt;span style=&quot;font-size: 7px&quot;&gt;Report Result and recommended solution to users&lt;/span&gt;" style="rounded=1;whiteSpace=wrap;html=1;shadow=0;labelBackgroundColor=none;strokeWidth=1;fontFamily=Verdana;fontSize=8;align=center;fillColor=#dae8fc;strokeColor=#6c8ebf;" parent="R-Gr46VUxKY90N0XMq4_-2" vertex="1">
          <mxGeometry x="46.5" y="913" width="70" height="50" as="geometry" />
        </mxCell>
        <mxCell id="R-Gr46VUxKY90N0XMq4_-106" value="" style="ellipse;whiteSpace=wrap;html=1;aspect=fixed;fillColor=#FFFFFF;" parent="R-Gr46VUxKY90N0XMq4_-2" vertex="1">
          <mxGeometry x="64" y="984" width="30" height="30" as="geometry" />
        </mxCell>
        <mxCell id="R-Gr46VUxKY90N0XMq4_-107" value="" style="ellipse;whiteSpace=wrap;html=1;aspect=fixed;fillColor=#000000;" parent="R-Gr46VUxKY90N0XMq4_-2" vertex="1">
          <mxGeometry x="69" y="989" width="20" height="20" as="geometry" />
        </mxCell>
        <mxCell id="R-Gr46VUxKY90N0XMq4_-115" value="" style="endArrow=classic;html=1;entryX=0.5;entryY=0;entryDx=0;entryDy=0;" parent="R-Gr46VUxKY90N0XMq4_-2" target="R-Gr46VUxKY90N0XMq4_-106" edge="1">
          <mxGeometry width="50" height="50" relative="1" as="geometry">
            <mxPoint x="79" y="963.41" as="sourcePoint" />
            <mxPoint x="99" y="963" as="targetPoint" />
          </mxGeometry>
        </mxCell>
        <mxCell id="R-Gr46VUxKY90N0XMq4_-116" value="Finish" style="text;html=1;strokeColor=none;fillColor=none;align=center;verticalAlign=middle;whiteSpace=wrap;rounded=0;" parent="R-Gr46VUxKY90N0XMq4_-2" vertex="1">
          <mxGeometry x="25" y="989" width="40" height="20" as="geometry" />
        </mxCell>
        <mxCell id="R-Gr46VUxKY90N0XMq4_-25" value="ITserviceDesk" style="swimlane;html=1;startSize=20;" parent="1" vertex="1">
          <mxGeometry x="193" y="33" width="305" height="1020" as="geometry">
            <mxRectangle x="150" y="20" width="150" height="1040" as="alternateBounds" />
          </mxGeometry>
        </mxCell>
        <mxCell id="R-Gr46VUxKY90N0XMq4_-26" value="&lt;font style=&quot;font-size: 7px&quot;&gt;*Check*&lt;br&gt;Is it from someone user know&lt;/font&gt;" style="rhombus;whiteSpace=wrap;html=1;rounded=0;shadow=0;labelBackgroundColor=none;strokeWidth=1;fontFamily=Verdana;fontSize=8;align=center;" parent="R-Gr46VUxKY90N0XMq4_-25" vertex="1">
          <mxGeometry x="105" y="160" width="80" height="60" as="geometry" />
        </mxCell>
        <mxCell id="R-Gr46VUxKY90N0XMq4_-27" value="No" style="text;html=1;strokeColor=none;fillColor=none;align=center;verticalAlign=middle;whiteSpace=wrap;rounded=0;" parent="R-Gr46VUxKY90N0XMq4_-25" vertex="1">
          <mxGeometry x="175" y="190" width="40" height="20" as="geometry" />
        </mxCell>
        <mxCell id="R-Gr46VUxKY90N0XMq4_-28" value="Yes" style="text;html=1;strokeColor=none;fillColor=none;align=center;verticalAlign=middle;whiteSpace=wrap;rounded=0;" parent="R-Gr46VUxKY90N0XMq4_-25" vertex="1">
          <mxGeometry x="108" y="220" width="40" height="20" as="geometry" />
        </mxCell>
        <mxCell id="R-Gr46VUxKY90N0XMq4_-29" value="" style="edgeStyle=orthogonalEdgeStyle;rounded=0;orthogonalLoop=1;jettySize=auto;html=1;entryX=0.5;entryY=0;entryDx=0;entryDy=0;" parent="R-Gr46VUxKY90N0XMq4_-25" source="R-Gr46VUxKY90N0XMq4_-26" target="R-Gr46VUxKY90N0XMq4_-40" edge="1">
          <mxGeometry relative="1" as="geometry">
            <mxPoint x="75" y="240" as="targetPoint" />
          </mxGeometry>
        </mxCell>
        <mxCell id="R-Gr46VUxKY90N0XMq4_-30" value="&lt;span style=&quot;font-size: 7px&quot;&gt;*Check*&lt;br&gt;Contains generic language, phone No.&lt;br&gt;&lt;/span&gt;" style="rhombus;whiteSpace=wrap;html=1;rounded=0;shadow=0;labelBackgroundColor=none;strokeWidth=1;fontFamily=Verdana;fontSize=8;align=center;" parent="R-Gr46VUxKY90N0XMq4_-25" vertex="1">
          <mxGeometry x="106" y="287" width="80" height="60" as="geometry" />
        </mxCell>
        <mxCell id="R-Gr46VUxKY90N0XMq4_-32" value="&lt;span style=&quot;font-size: 7px&quot;&gt;*Check*&lt;br&gt;Ask user to send password, money transfer, credentials, financials&lt;br&gt;&lt;/span&gt;" style="rhombus;whiteSpace=wrap;html=1;rounded=0;shadow=0;labelBackgroundColor=none;strokeWidth=1;fontFamily=Verdana;fontSize=8;align=center;" parent="R-Gr46VUxKY90N0XMq4_-25" vertex="1">
          <mxGeometry x="106" y="410" width="80" height="60" as="geometry" />
        </mxCell>
        <mxCell id="R-Gr46VUxKY90N0XMq4_-34" value="Yes" style="text;html=1;strokeColor=none;fillColor=none;align=center;verticalAlign=middle;whiteSpace=wrap;rounded=0;" parent="R-Gr46VUxKY90N0XMq4_-25" vertex="1">
          <mxGeometry x="109" y="350" width="40" height="20" as="geometry" />
        </mxCell>
        <mxCell id="R-Gr46VUxKY90N0XMq4_-36" value="No" style="text;html=1;strokeColor=none;fillColor=none;align=center;verticalAlign=middle;whiteSpace=wrap;rounded=0;" parent="R-Gr46VUxKY90N0XMq4_-25" vertex="1">
          <mxGeometry x="112" y="470" width="40" height="20" as="geometry" />
        </mxCell>
        <mxCell id="R-Gr46VUxKY90N0XMq4_-37" value="&lt;span style=&quot;font-size: 7px&quot;&gt;*Check*&lt;br&gt;&lt;/span&gt;&lt;span style=&quot;font-size: 7px&quot;&gt;Identify is the msg contain a Link or URLs?&lt;/span&gt;" style="rhombus;whiteSpace=wrap;html=1;rounded=0;shadow=0;labelBackgroundColor=none;strokeWidth=1;fontFamily=Verdana;fontSize=8;align=center;" parent="R-Gr46VUxKY90N0XMq4_-25" vertex="1">
          <mxGeometry x="105" y="540" width="80" height="60" as="geometry" />
        </mxCell>
        <mxCell id="R-Gr46VUxKY90N0XMq4_-40" value="" style="ellipse;whiteSpace=wrap;html=1;aspect=fixed;fillColor=#FFFFFF;" parent="R-Gr46VUxKY90N0XMq4_-25" vertex="1">
          <mxGeometry x="135" y="245" width="20" height="20" as="geometry" />
        </mxCell>
        <mxCell id="R-Gr46VUxKY90N0XMq4_-41" value="" style="endArrow=classic;html=1;exitX=0.5;exitY=1;exitDx=0;exitDy=0;entryX=0.5;entryY=0;entryDx=0;entryDy=0;" parent="R-Gr46VUxKY90N0XMq4_-25" source="R-Gr46VUxKY90N0XMq4_-40" target="R-Gr46VUxKY90N0XMq4_-30" edge="1">
          <mxGeometry width="50" height="50" relative="1" as="geometry">
            <mxPoint x="75" y="270" as="sourcePoint" />
            <mxPoint x="75" y="290" as="targetPoint" />
          </mxGeometry>
        </mxCell>
        <mxCell id="R-Gr46VUxKY90N0XMq4_-44" value="No" style="text;html=1;strokeColor=none;fillColor=none;align=center;verticalAlign=middle;whiteSpace=wrap;rounded=0;" parent="R-Gr46VUxKY90N0XMq4_-25" vertex="1">
          <mxGeometry x="178" y="630" width="40" height="20" as="geometry" />
        </mxCell>
        <mxCell id="R-Gr46VUxKY90N0XMq4_-45" value="Yes" style="text;html=1;strokeColor=none;fillColor=none;align=center;verticalAlign=middle;whiteSpace=wrap;rounded=0;" parent="R-Gr46VUxKY90N0XMq4_-25" vertex="1">
          <mxGeometry x="175" y="520" width="40" height="20" as="geometry" />
        </mxCell>
        <mxCell id="R-Gr46VUxKY90N0XMq4_-46" value="&lt;span style=&quot;font-size: 7px&quot;&gt;*Check*&lt;br&gt;&lt;/span&gt;&lt;span style=&quot;font-size: 7px&quot;&gt;Does Hyperlink or URLs getting to true destination?&lt;/span&gt;" style="rhombus;whiteSpace=wrap;html=1;rounded=0;shadow=0;labelBackgroundColor=none;strokeWidth=1;fontFamily=Verdana;fontSize=8;align=center;" parent="R-Gr46VUxKY90N0XMq4_-25" vertex="1">
          <mxGeometry x="105" y="620" width="80" height="60" as="geometry" />
        </mxCell>
        <mxCell id="R-Gr46VUxKY90N0XMq4_-47" value="" style="edgeStyle=orthogonalEdgeStyle;rounded=0;orthogonalLoop=1;jettySize=auto;html=1;" parent="R-Gr46VUxKY90N0XMq4_-25" source="R-Gr46VUxKY90N0XMq4_-37" target="R-Gr46VUxKY90N0XMq4_-46" edge="1">
          <mxGeometry relative="1" as="geometry" />
        </mxCell>
        <mxCell id="R-Gr46VUxKY90N0XMq4_-48" value="&lt;span style=&quot;font-size: 7px&quot;&gt;*Check*&lt;br&gt;Does email body look legitimate? bring user go to legit site&lt;/span&gt;" style="rhombus;whiteSpace=wrap;html=1;rounded=0;shadow=0;labelBackgroundColor=none;strokeWidth=1;fontFamily=Verdana;fontSize=8;align=center;" parent="R-Gr46VUxKY90N0XMq4_-25" vertex="1">
          <mxGeometry x="105" y="730" width="80" height="60" as="geometry" />
        </mxCell>
        <mxCell id="R-Gr46VUxKY90N0XMq4_-49" value="Yes" style="text;html=1;strokeColor=none;fillColor=none;align=center;verticalAlign=middle;whiteSpace=wrap;rounded=0;" parent="R-Gr46VUxKY90N0XMq4_-25" vertex="1">
          <mxGeometry x="108" y="680" width="40" height="20" as="geometry" />
        </mxCell>
        <mxCell id="R-Gr46VUxKY90N0XMq4_-50" value="No" style="text;html=1;strokeColor=none;fillColor=none;align=center;verticalAlign=middle;whiteSpace=wrap;rounded=0;" parent="R-Gr46VUxKY90N0XMq4_-25" vertex="1">
          <mxGeometry x="178" y="740" width="40" height="20" as="geometry" />
        </mxCell>
        <mxCell id="R-Gr46VUxKY90N0XMq4_-51" value="Yes" style="text;html=1;strokeColor=none;fillColor=none;align=center;verticalAlign=middle;whiteSpace=wrap;rounded=0;" parent="R-Gr46VUxKY90N0XMq4_-25" vertex="1">
          <mxGeometry x="105" y="790" width="40" height="20" as="geometry" />
        </mxCell>
        <mxCell id="R-Gr46VUxKY90N0XMq4_-55" value="" style="edgeStyle=orthogonalEdgeStyle;rounded=0;orthogonalLoop=1;jettySize=auto;html=1;" parent="R-Gr46VUxKY90N0XMq4_-25" edge="1">
          <mxGeometry relative="1" as="geometry">
            <mxPoint x="146" y="507" as="targetPoint" />
            <mxPoint x="145.99999999999994" y="469.25" as="sourcePoint" />
            <Array as="points">
              <mxPoint x="146" y="477" />
              <mxPoint x="146" y="477" />
            </Array>
          </mxGeometry>
        </mxCell>
        <mxCell id="R-Gr46VUxKY90N0XMq4_-59" value="Yes" style="text;html=1;strokeColor=none;fillColor=none;align=center;verticalAlign=middle;whiteSpace=wrap;rounded=0;" parent="R-Gr46VUxKY90N0XMq4_-25" vertex="1">
          <mxGeometry x="96" y="899" width="40" height="20" as="geometry" />
        </mxCell>
        <mxCell id="R-Gr46VUxKY90N0XMq4_-61" value="&lt;span style=&quot;font-size: 7px&quot;&gt;Check Sender, subject &amp;amp; Header details that come from trusting source&lt;/span&gt;" style="rhombus;whiteSpace=wrap;html=1;rounded=0;shadow=0;labelBackgroundColor=none;strokeWidth=1;fontFamily=Verdana;fontSize=8;align=center;" parent="R-Gr46VUxKY90N0XMq4_-25" vertex="1">
          <mxGeometry x="105" y="65" width="80" height="60" as="geometry" />
        </mxCell>
        <mxCell id="R-Gr46VUxKY90N0XMq4_-62" value="" style="endArrow=classic;html=1;" parent="R-Gr46VUxKY90N0XMq4_-25" edge="1">
          <mxGeometry width="50" height="50" relative="1" as="geometry">
            <mxPoint x="145.00000000000003" y="125" as="sourcePoint" />
            <mxPoint x="145.4" y="160" as="targetPoint" />
          </mxGeometry>
        </mxCell>
        <mxCell id="R-Gr46VUxKY90N0XMq4_-63" value="Yes" style="text;html=1;strokeColor=none;fillColor=none;align=center;verticalAlign=middle;whiteSpace=wrap;rounded=0;" parent="R-Gr46VUxKY90N0XMq4_-25" vertex="1">
          <mxGeometry x="140" y="129" width="40" height="20" as="geometry" />
        </mxCell>
        <mxCell id="R-Gr46VUxKY90N0XMq4_-64" value="No" style="text;html=1;strokeColor=none;fillColor=none;align=center;verticalAlign=middle;whiteSpace=wrap;rounded=0;" parent="R-Gr46VUxKY90N0XMq4_-25" vertex="1">
          <mxGeometry x="175" y="95" width="40" height="20" as="geometry" />
        </mxCell>
        <mxCell id="R-Gr46VUxKY90N0XMq4_-67" value="" style="ellipse;whiteSpace=wrap;html=1;aspect=fixed;fillColor=#FFFFFF;" parent="R-Gr46VUxKY90N0XMq4_-25" vertex="1">
          <mxGeometry x="134" y="930" width="20" height="20" as="geometry" />
        </mxCell>
        <mxCell id="R-Gr46VUxKY90N0XMq4_-7" value="&lt;font style=&quot;font-size: 8px&quot;&gt;1 Phishing&amp;nbsp;&lt;br&gt;Point&lt;br&gt;&lt;/font&gt;" style="shape=parallelogram;perimeter=parallelogramPerimeter;whiteSpace=wrap;html=1;fixedSize=1;fillColor=#fff2cc;strokeColor=#d6b656;" parent="R-Gr46VUxKY90N0XMq4_-25" vertex="1">
          <mxGeometry x="213" y="176" width="71" height="30" as="geometry" />
        </mxCell>
        <mxCell id="R-Gr46VUxKY90N0XMq4_-11" value="&lt;font style=&quot;font-size: 10px&quot; color=&quot;#ff0000&quot;&gt;&lt;b&gt;P&lt;/b&gt;&lt;/font&gt;" style="ellipse;whiteSpace=wrap;html=1;aspect=fixed;fillColor=#f8cecc;strokeColor=#b85450;" parent="R-Gr46VUxKY90N0XMq4_-25" vertex="1">
          <mxGeometry x="220" y="191" width="14" height="14" as="geometry" />
        </mxCell>
        <mxCell id="R-Gr46VUxKY90N0XMq4_-8" value="&lt;font style=&quot;font-size: 8px&quot;&gt;1 Phishing&amp;nbsp;&lt;br&gt;Point&lt;br&gt;&lt;/font&gt;" style="shape=parallelogram;perimeter=parallelogramPerimeter;whiteSpace=wrap;html=1;fixedSize=1;fillColor=#fff2cc;strokeColor=#d6b656;" parent="R-Gr46VUxKY90N0XMq4_-25" vertex="1">
          <mxGeometry x="209" y="305" width="69" height="30" as="geometry" />
        </mxCell>
        <mxCell id="R-Gr46VUxKY90N0XMq4_-12" value="&lt;font style=&quot;font-size: 10px&quot; color=&quot;#ff0000&quot;&gt;&lt;b&gt;P&lt;/b&gt;&lt;/font&gt;" style="ellipse;whiteSpace=wrap;html=1;aspect=fixed;fillColor=#f8cecc;strokeColor=#b85450;" parent="R-Gr46VUxKY90N0XMq4_-25" vertex="1">
          <mxGeometry x="219" y="320" width="14" height="14" as="geometry" />
        </mxCell>
        <mxCell id="R-Gr46VUxKY90N0XMq4_-79" value="&lt;font style=&quot;font-size: 8px&quot;&gt;5 Phishing&amp;nbsp;&lt;br&gt;Point&lt;br&gt;&lt;/font&gt;" style="shape=parallelogram;perimeter=parallelogramPerimeter;whiteSpace=wrap;html=1;fixedSize=1;fillColor=#f8cecc;strokeColor=#b85450;" parent="R-Gr46VUxKY90N0XMq4_-25" vertex="1">
          <mxGeometry x="210" y="80" width="70" height="30" as="geometry" />
        </mxCell>
        <mxCell id="R-Gr46VUxKY90N0XMq4_-80" value="&lt;font style=&quot;font-size: 10px&quot; color=&quot;#ff0000&quot;&gt;&lt;b&gt;P&lt;/b&gt;&lt;/font&gt;" style="ellipse;whiteSpace=wrap;html=1;aspect=fixed;fillColor=#f8cecc;strokeColor=#b85450;" parent="R-Gr46VUxKY90N0XMq4_-25" vertex="1">
          <mxGeometry x="221" y="95" width="14" height="14" as="geometry" />
        </mxCell>
        <mxCell id="R-Gr46VUxKY90N0XMq4_-82" value="" style="edgeStyle=orthogonalEdgeStyle;rounded=0;orthogonalLoop=1;jettySize=auto;html=1;" parent="R-Gr46VUxKY90N0XMq4_-25" edge="1">
          <mxGeometry relative="1" as="geometry">
            <mxPoint x="185" y="94.75999999999999" as="sourcePoint" />
            <mxPoint x="220" y="94.75999999999999" as="targetPoint" />
          </mxGeometry>
        </mxCell>
        <mxCell id="R-Gr46VUxKY90N0XMq4_-9" value="2 Phishing&lt;br&gt;Point" style="shape=parallelogram;perimeter=parallelogramPerimeter;whiteSpace=wrap;html=1;fixedSize=1;rounded=0;shadow=0;fontFamily=Verdana;fontSize=8;strokeWidth=1;fillColor=#ffe6cc;strokeColor=#d79b00;" parent="R-Gr46VUxKY90N0XMq4_-25" vertex="1">
          <mxGeometry x="208" y="417" width="71" height="30" as="geometry" />
        </mxCell>
        <mxCell id="R-Gr46VUxKY90N0XMq4_-13" value="&lt;font style=&quot;font-size: 10px&quot; color=&quot;#ff0000&quot;&gt;&lt;b&gt;2P&lt;/b&gt;&lt;/font&gt;" style="ellipse;whiteSpace=wrap;html=1;aspect=fixed;fillColor=#f8cecc;strokeColor=#b85450;" parent="R-Gr46VUxKY90N0XMq4_-25" vertex="1">
          <mxGeometry x="219" y="430" width="14" height="14" as="geometry" />
        </mxCell>
        <mxCell id="R-Gr46VUxKY90N0XMq4_-83" value="" style="edgeStyle=orthogonalEdgeStyle;rounded=0;orthogonalLoop=1;jettySize=auto;html=1;" parent="R-Gr46VUxKY90N0XMq4_-25" edge="1">
          <mxGeometry relative="1" as="geometry">
            <mxPoint x="185.9540229885058" y="439.9344827586207" as="sourcePoint" />
            <mxPoint x="221" y="439.9" as="targetPoint" />
          </mxGeometry>
        </mxCell>
        <mxCell id="R-Gr46VUxKY90N0XMq4_-84" value="" style="edgeStyle=orthogonalEdgeStyle;rounded=0;orthogonalLoop=1;jettySize=auto;html=1;" parent="R-Gr46VUxKY90N0XMq4_-25" edge="1">
          <mxGeometry relative="1" as="geometry">
            <mxPoint x="185.9540229885058" y="317.3444827586207" as="sourcePoint" />
            <mxPoint x="221" y="317.31" as="targetPoint" />
          </mxGeometry>
        </mxCell>
        <mxCell id="R-Gr46VUxKY90N0XMq4_-85" value="No" style="text;html=1;strokeColor=none;fillColor=none;align=center;verticalAlign=middle;whiteSpace=wrap;rounded=0;" parent="R-Gr46VUxKY90N0XMq4_-25" vertex="1">
          <mxGeometry x="175" y="320" width="40" height="20" as="geometry" />
        </mxCell>
        <mxCell id="R-Gr46VUxKY90N0XMq4_-86" value="Yes" style="text;html=1;strokeColor=none;fillColor=none;align=center;verticalAlign=middle;whiteSpace=wrap;rounded=0;" parent="R-Gr46VUxKY90N0XMq4_-25" vertex="1">
          <mxGeometry x="175" y="444" width="40" height="20" as="geometry" />
        </mxCell>
        <mxCell id="R-Gr46VUxKY90N0XMq4_-87" value="&lt;font style=&quot;font-size: 8px&quot;&gt;1 Phishing&amp;nbsp;&lt;br&gt;Point&lt;br&gt;&lt;/font&gt;" style="shape=parallelogram;perimeter=parallelogramPerimeter;whiteSpace=wrap;html=1;fixedSize=1;fillColor=#fff2cc;strokeColor=#d6b656;" parent="R-Gr46VUxKY90N0XMq4_-25" vertex="1">
          <mxGeometry x="210.5" y="525" width="69" height="30" as="geometry" />
        </mxCell>
        <mxCell id="R-Gr46VUxKY90N0XMq4_-88" value="&lt;font style=&quot;font-size: 10px&quot; color=&quot;#ff0000&quot;&gt;&lt;b&gt;P&lt;/b&gt;&lt;/font&gt;" style="ellipse;whiteSpace=wrap;html=1;aspect=fixed;fillColor=#f8cecc;strokeColor=#b85450;" parent="R-Gr46VUxKY90N0XMq4_-25" vertex="1">
          <mxGeometry x="220.5" y="540" width="14" height="14" as="geometry" />
        </mxCell>
        <mxCell id="R-Gr46VUxKY90N0XMq4_-89" value="&lt;font style=&quot;font-size: 8px&quot;&gt;1 Phishing&amp;nbsp;&lt;br&gt;Point&lt;br&gt;&lt;/font&gt;" style="shape=parallelogram;perimeter=parallelogramPerimeter;whiteSpace=wrap;html=1;fixedSize=1;fillColor=#fff2cc;strokeColor=#d6b656;" parent="R-Gr46VUxKY90N0XMq4_-25" vertex="1">
          <mxGeometry x="211" y="635" width="69" height="30" as="geometry" />
        </mxCell>
        <mxCell id="R-Gr46VUxKY90N0XMq4_-90" value="&lt;font style=&quot;font-size: 10px&quot; color=&quot;#ff0000&quot;&gt;&lt;b&gt;P&lt;/b&gt;&lt;/font&gt;" style="ellipse;whiteSpace=wrap;html=1;aspect=fixed;fillColor=#f8cecc;strokeColor=#b85450;" parent="R-Gr46VUxKY90N0XMq4_-25" vertex="1">
          <mxGeometry x="221" y="650" width="14" height="14" as="geometry" />
        </mxCell>
        <mxCell id="R-Gr46VUxKY90N0XMq4_-93" value="" style="edgeStyle=orthogonalEdgeStyle;rounded=0;orthogonalLoop=1;jettySize=auto;html=1;entryX=0.489;entryY=-0.001;entryDx=0;entryDy=0;entryPerimeter=0;" parent="R-Gr46VUxKY90N0XMq4_-25" edge="1">
          <mxGeometry relative="1" as="geometry">
            <mxPoint x="144.76" y="680.06" as="sourcePoint" />
            <mxPoint x="144.88" y="730" as="targetPoint" />
            <Array as="points">
              <mxPoint x="144.76" y="690" />
              <mxPoint x="144.76" y="690" />
            </Array>
          </mxGeometry>
        </mxCell>
        <mxCell id="R-Gr46VUxKY90N0XMq4_-94" value="&lt;font style=&quot;font-size: 8px&quot;&gt;5 Phishing&amp;nbsp;&lt;br&gt;Point&lt;br&gt;&lt;/font&gt;" style="shape=parallelogram;perimeter=parallelogramPerimeter;whiteSpace=wrap;html=1;fixedSize=1;fillColor=#f8cecc;strokeColor=#b85450;" parent="R-Gr46VUxKY90N0XMq4_-25" vertex="1">
          <mxGeometry x="210.5" y="745" width="69" height="30" as="geometry" />
        </mxCell>
        <mxCell id="R-Gr46VUxKY90N0XMq4_-95" value="&lt;font style=&quot;font-size: 10px&quot; color=&quot;#ff0000&quot;&gt;&lt;b&gt;P&lt;/b&gt;&lt;/font&gt;" style="ellipse;whiteSpace=wrap;html=1;aspect=fixed;fillColor=#f8cecc;strokeColor=#b85450;" parent="R-Gr46VUxKY90N0XMq4_-25" vertex="1">
          <mxGeometry x="220.5" y="760" width="14" height="14" as="geometry" />
        </mxCell>
        <mxCell id="R-Gr46VUxKY90N0XMq4_-97" value="" style="edgeStyle=orthogonalEdgeStyle;rounded=0;orthogonalLoop=1;jettySize=auto;html=1;" parent="R-Gr46VUxKY90N0XMq4_-25" edge="1">
          <mxGeometry relative="1" as="geometry">
            <mxPoint x="184.9540229885058" y="539.5544827586207" as="sourcePoint" />
            <mxPoint x="220" y="539.52" as="targetPoint" />
          </mxGeometry>
        </mxCell>
        <mxCell id="R-Gr46VUxKY90N0XMq4_-98" value="" style="edgeStyle=orthogonalEdgeStyle;rounded=0;orthogonalLoop=1;jettySize=auto;html=1;" parent="R-Gr46VUxKY90N0XMq4_-25" edge="1">
          <mxGeometry relative="1" as="geometry">
            <mxPoint x="184.9540229885058" y="649.5544827586207" as="sourcePoint" />
            <mxPoint x="220" y="649.52" as="targetPoint" />
          </mxGeometry>
        </mxCell>
        <mxCell id="R-Gr46VUxKY90N0XMq4_-99" value="" style="edgeStyle=orthogonalEdgeStyle;rounded=0;orthogonalLoop=1;jettySize=auto;html=1;entryX=0.489;entryY=-0.001;entryDx=0;entryDy=0;entryPerimeter=0;" parent="R-Gr46VUxKY90N0XMq4_-25" edge="1">
          <mxGeometry relative="1" as="geometry">
            <mxPoint x="144.70999999999998" y="790" as="sourcePoint" />
            <mxPoint x="144.82999999999998" y="839.94" as="targetPoint" />
            <Array as="points">
              <mxPoint x="144.70999999999998" y="799.94" />
              <mxPoint x="144.70999999999998" y="799.94" />
            </Array>
          </mxGeometry>
        </mxCell>
        <mxCell id="R-Gr46VUxKY90N0XMq4_-100" value="" style="edgeStyle=orthogonalEdgeStyle;rounded=0;orthogonalLoop=1;jettySize=auto;html=1;" parent="R-Gr46VUxKY90N0XMq4_-25" edge="1">
          <mxGeometry relative="1" as="geometry">
            <mxPoint x="185.4540229885058" y="759.6344827586207" as="sourcePoint" />
            <mxPoint x="220.5" y="759.5999999999999" as="targetPoint" />
          </mxGeometry>
        </mxCell>
        <mxCell id="R-Gr46VUxKY90N0XMq4_-101" value="&lt;font style=&quot;font-size: 7px&quot;&gt;Users are on &lt;b&gt;phishing/Scam&lt;/b&gt;&amp;nbsp;&lt;br&gt;cause This is &lt;b&gt;suspicious email&lt;/b&gt;&lt;/font&gt;" style="rounded=1;whiteSpace=wrap;html=1;shadow=0;labelBackgroundColor=none;strokeWidth=1;fontFamily=Verdana;fontSize=8;align=center;fillColor=#f8cecc;strokeColor=#b85450;" parent="R-Gr46VUxKY90N0XMq4_-25" vertex="1">
          <mxGeometry x="200" y="840" width="70" height="50" as="geometry" />
        </mxCell>
        <mxCell id="R-Gr46VUxKY90N0XMq4_-102" value="" style="edgeStyle=orthogonalEdgeStyle;rounded=0;orthogonalLoop=1;jettySize=auto;html=1;entryX=0.536;entryY=0;entryDx=0;entryDy=0;entryPerimeter=0;" parent="R-Gr46VUxKY90N0XMq4_-25" target="R-Gr46VUxKY90N0XMq4_-101" edge="1">
          <mxGeometry relative="1" as="geometry">
            <mxPoint x="237.38000000000005" y="775" as="sourcePoint" />
            <mxPoint x="237.49999999999994" y="824.94" as="targetPoint" />
            <Array as="points">
              <mxPoint x="237" y="785" />
            </Array>
          </mxGeometry>
        </mxCell>
        <mxCell id="R-Gr46VUxKY90N0XMq4_-103" value="&lt;span style=&quot;font-size: 7px&quot;&gt;Users are&lt;b&gt; safe &lt;/b&gt;from Phishing/Scam/&lt;br&gt;Malware&lt;br&gt;&lt;/span&gt;&lt;font style=&quot;font-size: 6px&quot;&gt;0 Phishing&lt;br&gt;Point&lt;/font&gt;&lt;span style=&quot;font-size: 7px&quot;&gt;&lt;br&gt;&lt;/span&gt;" style="rounded=1;whiteSpace=wrap;html=1;shadow=0;labelBackgroundColor=none;strokeWidth=1;fontFamily=Verdana;fontSize=8;align=center;fillColor=#d5e8d4;strokeColor=#82b366;" parent="R-Gr46VUxKY90N0XMq4_-25" vertex="1">
          <mxGeometry x="108" y="840" width="70" height="50" as="geometry" />
        </mxCell>
        <mxCell id="R-Gr46VUxKY90N0XMq4_-104" value="No" style="text;html=1;strokeColor=none;fillColor=none;align=center;verticalAlign=middle;whiteSpace=wrap;rounded=0;" parent="R-Gr46VUxKY90N0XMq4_-25" vertex="1">
          <mxGeometry x="112" y="580" width="40" height="20" as="geometry" />
        </mxCell>
        <mxCell id="R-Gr46VUxKY90N0XMq4_-109" value="" style="edgeStyle=elbowEdgeStyle;elbow=horizontal;endArrow=classic;html=1;exitX=1;exitY=0.75;exitDx=0;exitDy=0;entryX=1;entryY=0.5;entryDx=0;entryDy=0;" parent="R-Gr46VUxKY90N0XMq4_-25" source="R-Gr46VUxKY90N0XMq4_-79" target="R-Gr46VUxKY90N0XMq4_-101" edge="1">
          <mxGeometry width="50" height="50" relative="1" as="geometry">
            <mxPoint x="295" y="100" as="sourcePoint" />
            <mxPoint x="255" y="190" as="targetPoint" />
            <Array as="points">
              <mxPoint x="290" y="150" />
            </Array>
          </mxGeometry>
        </mxCell>
        <mxCell id="R-Gr46VUxKY90N0XMq4_-110" value="" style="edgeStyle=segmentEdgeStyle;endArrow=classic;html=1;entryX=1;entryY=0.5;entryDx=0;entryDy=0;" parent="R-Gr46VUxKY90N0XMq4_-25" target="R-Gr46VUxKY90N0XMq4_-67" edge="1">
          <mxGeometry width="50" height="50" relative="1" as="geometry">
            <mxPoint x="240" y="890" as="sourcePoint" />
            <mxPoint x="150" y="960" as="targetPoint" />
            <Array as="points">
              <mxPoint x="240" y="940" />
            </Array>
          </mxGeometry>
        </mxCell>
        <mxCell id="R-Gr46VUxKY90N0XMq4_-111" value="" style="edgeStyle=orthogonalEdgeStyle;rounded=0;orthogonalLoop=1;jettySize=auto;html=1;entryX=0.5;entryY=0;entryDx=0;entryDy=0;" parent="R-Gr46VUxKY90N0XMq4_-25" target="R-Gr46VUxKY90N0XMq4_-67" edge="1">
          <mxGeometry relative="1" as="geometry">
            <mxPoint x="143.88" y="889.03" as="sourcePoint" />
            <mxPoint x="143.70999999999992" y="928.97" as="targetPoint" />
            <Array as="points" />
          </mxGeometry>
        </mxCell>
        <mxCell id="c6hkjIBBZ9aRxIhb5HxW-2" value="" style="endArrow=classic;html=1;entryX=0.154;entryY=0.454;entryDx=0;entryDy=0;entryPerimeter=0;" edge="1" parent="R-Gr46VUxKY90N0XMq4_-25" target="R-Gr46VUxKY90N0XMq4_-7">
          <mxGeometry width="50" height="50" relative="1" as="geometry">
            <mxPoint x="184" y="190" as="sourcePoint" />
            <mxPoint x="223" y="189" as="targetPoint" />
          </mxGeometry>
        </mxCell>
        <mxCell id="c6hkjIBBZ9aRxIhb5HxW-3" value="" style="ellipse;whiteSpace=wrap;html=1;aspect=fixed;fillColor=#FFFFFF;" vertex="1" parent="R-Gr46VUxKY90N0XMq4_-25">
          <mxGeometry x="136" y="370" width="20" height="20" as="geometry" />
        </mxCell>
        <mxCell id="c6hkjIBBZ9aRxIhb5HxW-4" value="" style="endArrow=classic;html=1;exitX=0.5;exitY=1;exitDx=0;exitDy=0;" edge="1" parent="R-Gr46VUxKY90N0XMq4_-25" source="c6hkjIBBZ9aRxIhb5HxW-3">
          <mxGeometry width="50" height="50" relative="1" as="geometry">
            <mxPoint x="146.91999999999996" y="390" as="sourcePoint" />
            <mxPoint x="146" y="410" as="targetPoint" />
          </mxGeometry>
        </mxCell>
        <mxCell id="c6hkjIBBZ9aRxIhb5HxW-5" value="" style="endArrow=classic;html=1;exitX=0.5;exitY=1;exitDx=0;exitDy=0;entryX=0.5;entryY=0;entryDx=0;entryDy=0;" edge="1" parent="R-Gr46VUxKY90N0XMq4_-25" target="c6hkjIBBZ9aRxIhb5HxW-3">
          <mxGeometry width="50" height="50" relative="1" as="geometry">
            <mxPoint x="145.87999999999994" y="347" as="sourcePoint" />
            <mxPoint x="145.95999999999998" y="367" as="targetPoint" />
          </mxGeometry>
        </mxCell>
        <mxCell id="R-Gr46VUxKY90N0XMq4_-70" value="" style="edgeStyle=elbowEdgeStyle;elbow=horizontal;endArrow=classic;html=1;exitX=1;exitY=0.75;exitDx=0;exitDy=0;entryX=0;entryY=0;entryDx=0;entryDy=0;" parent="1" source="R-Gr46VUxKY90N0XMq4_-10" target="R-Gr46VUxKY90N0XMq4_-30" edge="1">
          <mxGeometry width="50" height="50" relative="1" as="geometry">
            <mxPoint x="78" y="283" as="sourcePoint" />
            <mxPoint x="158" y="263" as="targetPoint" />
            <Array as="points">
              <mxPoint x="225" y="323" />
            </Array>
          </mxGeometry>
        </mxCell>
        <mxCell id="R-Gr46VUxKY90N0XMq4_-73" value="" style="endArrow=classic;html=1;entryX=0.999;entryY=0.534;entryDx=0;entryDy=0;exitX=0;exitY=0.5;exitDx=0;exitDy=0;entryPerimeter=0;" parent="1" source="R-Gr46VUxKY90N0XMq4_-67" target="R-Gr46VUxKY90N0XMq4_-23" edge="1">
          <mxGeometry width="50" height="50" relative="1" as="geometry">
            <mxPoint x="127" y="1053" as="sourcePoint" />
            <mxPoint x="177" y="1003" as="targetPoint" />
          </mxGeometry>
        </mxCell>
        <mxCell id="R-Gr46VUxKY90N0XMq4_-42" value="" style="endArrow=classic;html=1;entryX=1.007;entryY=0.53;entryDx=0;entryDy=0;entryPerimeter=0;exitX=0;exitY=0.5;exitDx=0;exitDy=0;" parent="1" source="R-Gr46VUxKY90N0XMq4_-40" target="R-Gr46VUxKY90N0XMq4_-10" edge="1">
          <mxGeometry width="50" height="50" relative="1" as="geometry">
            <mxPoint x="348" y="289" as="sourcePoint" />
            <mxPoint x="223" y="287.92" as="targetPoint" />
          </mxGeometry>
        </mxCell>
        <mxCell id="R-Gr46VUxKY90N0XMq4_-112" value="&lt;b&gt;0 Points&lt;/b&gt; - Users are probably safe with Phishing/Scam" style="text;html=1;strokeColor=none;fillColor=none;align=center;verticalAlign=middle;whiteSpace=wrap;rounded=0;fontColor=#00CC00;" parent="1" vertex="1">
          <mxGeometry x="494" y="39" width="350" height="20" as="geometry" />
        </mxCell>
        <mxCell id="R-Gr46VUxKY90N0XMq4_-113" value="&lt;b&gt;1- 4 Points&lt;/b&gt; - Cautions need more excercises" style="text;html=1;strokeColor=none;fillColor=none;align=center;verticalAlign=middle;whiteSpace=wrap;rounded=0;fontColor=#FF9933;" parent="1" vertex="1">
          <mxGeometry x="466" y="69" width="350" height="20" as="geometry" />
        </mxCell>
        <mxCell id="R-Gr46VUxKY90N0XMq4_-114" value="&lt;b&gt;5 Points or upper&lt;/b&gt; - This is suspicious email, &lt;br&gt;please let user be aware, report spamcheck/Security Expert" style="text;html=1;strokeColor=none;align=left;verticalAlign=middle;whiteSpace=wrap;rounded=0;fontColor=#FF0000;" parent="1" vertex="1">
          <mxGeometry x="522" y="103" width="360" height="20" as="geometry" />
        </mxCell>
      </root>
    </mxGraphModel>
  </diagram>
</mxfile>
